<?xml version="1.0" encoding="utf-8"?>
<!-- Generator: Adobe Illustrator 23.0.3, SVG Export Plug-In . SVG Version: 6.00 Build 0)  -->
<svg version="1.1" id="Layer_1" xmlns="http://www.w3.org/2000/svg" xmlns:xlink="http://www.w3.org/1999/xlink" x="0px" y="0px"
	 viewBox="0 0 265 132" style="enable-background:new 0 0 265 132;" xml:space="preserve">
<style type="text/css">
	.st0{fill:#F3FCFF;}
</style>
<g>
	<path class="st0" d="M174.5,65.7c0-14.2,0-28.3,0-42.5c0-3.2,0.1-6.9-4.2-6.8c-4.2,0.1-4,3.8-4,7c0,28.3,0,56.6,0,84.9
		c0,3.2,0,6.9,4.2,6.8s4-3.8,4-7C174.5,94,174.5,79.8,174.5,65.7z"/>
	<path class="st0" d="M107.9,30.2c0-4.1-0.2-8-6.1-6.2c-0.8,0.1-1.9,2.2-1.9,2.5c0,26.1,0,52.1,0,78.2c0,0.3,0.4,0.7,0.6,1
		c0,0.9,0.5,1.3,1.3,1.5c4.2,2.2,5.6-0.4,6-3.8c0.4-3.2,0.1-6.6,0.1-9.8C107.9,72.4,107.9,51.3,107.9,30.2z"/>
	<path class="st0" d="M123.1,29.4c-4.4-0.3-4.3,3.5-4.3,6.6c0,19.9,0,39.8,0,59.7c0,2.9,0,6.3,3.9,6.5c4.4,0.2,4.3-3.5,4.3-6.6
		c0-9.6,0-19.3,0-28.9c0-10,0-20.1,0-30.1C127.1,33.3,127,29.7,123.1,29.4z"/>
	<path class="st0" d="M83.2,29.4c-2.3,0.3-2.2,10-2.2,13.8c0.2,18.8-0.7,37.6,0.5,56.3c0.1,1.1,0.3,2.1,1.7,2.2
		c4.1,1.6,5.9-0.5,5.9-4.3c0.1-21.3,0.1-42.6,0-63.9C89.1,29.9,87.6,28.7,83.2,29.4z"/>
	<path class="st0" d="M164.3,32.8c0-1.1-0.3-2-1.7-2.2c-3.9-1.1-5.9,0.4-5.9,4.3c0,20.5-0.1,40.9,0,61.4c0,3.7,1.7,5.9,5.9,4.3
		c1.3-0.1,1.6-1.1,1.7-2.2c1.3-10.4,0.5-20.9,0.5-31.3C164.8,55.8,165.6,44.3,164.3,32.8z"/>
	<path class="st0" d="M221.9,65.8c0-9,0-18,0-27c0-3-0.1-6.3-3.9-6.5c-3.7-0.1-4.3,3-4.3,6.1c0,18.2,0,36.5,0,54.7
		c0,3.2,0.6,6.2,4.3,6.1c3.8-0.1,3.9-3.4,3.9-6.4C221.9,83.8,221.9,74.8,221.9,65.8z"/>
	<path class="st0" d="M183.9,70.3c0-9,0-18,0-27c0-3-0.1-6.3-3.9-6.5c-3.7-0.1-4.3,3-4.3,6.1c0,18.2,0,27.5,0,45.7
		c0,3.2,0.6,6.2,4.3,6.1c3.8-0.1,3.9-3.4,3.9-6.4C183.9,79.3,183.9,79.3,183.9,70.3z"/>
	<path class="st0" d="M132.6,33.5c-4.2-0.1-4.3,3.5-4.3,6.7c0,8.4,0,16.8,0,25.3c0,8.6,0,17.2,0,25.9c0,3.2,0.1,6.8,4.3,6.7
		c3.8-0.1,4-3.4,4-6.4c0-17.2,0-34.5,0-51.7C136.6,36.8,136.3,33.5,132.6,33.5z"/>
	<path class="st0" d="M238.7,34.4c-4.5-1-6.1,0.8-6.1,5.4c0.2,17.3,0.2,34.6,0,52c0,4.6,1.6,6.4,6.1,5.4c1,0.2,1.3-0.3,1.4-1.2
		c1.2-2.1,0.7-4.4,0.7-6.6c0-13.3,0.1-26.6,0-39.9C240.7,44.9,241.7,35,238.7,34.4z"/>
	<path class="st0" d="M94.7,47.5c-3.2-0.2-4.2,2.1-4.3,4.8c-0.1,9-0.1,17.9,0,26.9c0,2.7,1,5,4.1,4.9s4-2.4,4-5.1c0-4.5,0-9,0-13.5
		c0-4.3,0-8.6,0-12.8C98.6,50,97.8,47.6,94.7,47.5z"/>
	<path class="st0" d="M18.8,45.7c-3.1-0.2-4.2,2.2-4.2,5.2c-0.1,9.8-0.1,19.6,0,29.4c0,3,1,5.5,4.1,5.4s3.9-2.6,3.9-5.6
		c0-4.9,0-9.8,0-14.7c0-4.7,0-9.4,0-14C22.6,48.5,21.9,45.9,18.8,45.7z"/>
	<path class="st0" d="M145.9,52.9c-0.1-2.5-0.7-5.1-3.9-5.2c-3.7-0.1-4.2,2.6-4.2,5.4c0,8.4,0,16.8,0,25.2c0,2.9,0.5,5.6,4.1,5.5
		s4-2.9,4-5.7c0-4.1,0-8.2,0-12.3C146,61.5,146.1,57.2,145.9,52.9z"/>
	<path class="st0" d="M117.5,55.1c-0.1-2.3-1.2-3.9-3.8-4c-2.9-0.1-4.2,1.5-4.3,4.1c-0.1,7.2-0.1,14.3,0,21.5c0.1,2.3,1.5,3.7,4,3.7
		c2.6,0,3.8-1.5,3.9-3.8c0.2-3.5,0-7,0-10.4l0,0C117.5,62.5,117.6,58.8,117.5,55.1z"/>
	<path class="st0" d="M193.4,50.6c-0.1-2.3-1.2-3.9-3.8-4c-2.9-0.1-4.2,1.5-4.3,4.1c-0.1,7.2-0.1,23.3,0,30.5c0.1,2.3,1.5,3.7,4,3.7
		c2.6,0,3.8-1.5,3.9-3.8c0.2-3.5,0-16,0-19.4l0,0C193.4,58,193.5,54.3,193.4,50.6z"/>
	<path class="st0" d="M79.5,55.1c-0.1-2.3-1.2-3.9-3.8-4c-2.9-0.1-4.2,1.5-4.3,4.1c-0.1,7.2-0.1,14.3,0,21.5c0.1,2.3,1.5,3.7,4,3.7
		c2.6,0,3.8-1.5,3.9-3.8c0.2-3.5,0-7,0-10.4l0,0C79.6,62.5,79.7,58.8,79.5,55.1z"/>
	<path class="st0" d="M245.8,55c-2,0.1-3.4,1.2-3.5,3.4s0,4.5,0,6.7c0,2.6-0.2,5.3,0.1,7.9c0.2,2.3,1.8,3.6,4.2,3.5
		c2.1-0.1,3.6-1.4,3.7-3.4c0.2-5.1,0.2-10.2,0-15.2C250,55.5,247.8,54.9,245.8,55z"/>
	<path class="st0" d="M226.8,50.5c-2,0.1-3.4,1.2-3.5,3.4s0,4.5,0,6.7c0,2.6-0.2,14.3,0.1,16.9c0.2,2.3,1.8,3.6,4.2,3.5
		c2.1-0.1,3.6-1.4,3.7-3.4c0.2-5.1,0.2-19.2,0-24.2C231,51,228.8,50.4,226.8,50.5z"/>
	<path class="st0" d="M202.8,58.4c-0.2-2-1.3-3.6-3.5-3.5c-2,0.1-4.3,0.8-4.3,3.3c-0.2,5.1-0.2,10.1,0.1,15.2c0.1,2,1.7,3.3,3.8,3.3
		c2.4,0,3.9-1.4,4.1-3.7c0.2-2.4,0-4.9,0-7.3C202.8,63.2,203,60.8,202.8,58.4z"/>
	<path class="st0" d="M36.9,37c-2.6,0.6-3.3,2.8-3.3,5.2c0,15.7,0,31.4,0,47.2c0,2.4,0.7,4.6,3.3,5.2c2.6,0.5,4.2-0.9,4.7-3.5
		c0-16.8,0-34.8,0-50.4C41.6,38.5,39.7,36.3,36.9,37z"/>
	<path class="st0" d="M259.6,61.6c-0.4-2.3-1.8-3.9-4.2-3.5c-3.8,0.6-3.9,3.6-3.7,6.6c0.2,3.3-1.3,7.4,3.5,8.6
		c2.3,0.6,3.9-1,4.4-3.2c0.3-1.4,0.2-2.8,0.3-4.1C259.8,64.4,259.9,63,259.6,61.6z"/>
	<path class="st0" d="M208,58.9c-4.5,0.1-3.8,3.8-3.8,6.7c0,3.2-0.6,7.3,4.3,7.1c4.3-0.2,3.8-4,3.9-8.5
		C212.5,62.4,212.7,58.8,208,58.9z"/>
	<path class="st0" d="M151.3,58.1c-4.9,0.1-4,4.7-4,8.1c0,1.6,0.2,3.3,0.6,4.8c0.4,1.5,1.8,2.3,3.3,2.4c1.8,0.1,3.3-0.8,3.8-2.5
		c0.5-1.5,0.5-3.2,0.6-4C155.3,62.8,156.4,58.1,151.3,58.1z"/>
	<path class="st0" d="M56.3,58.7c-4.4,0.2-3.8,4-3.8,7c0,3.3-0.5,7.3,4.4,7.1c4.4-0.2,3.7-4,3.8-7.1C60.5,62.6,61.2,58.5,56.3,58.7z
		"/>
	<path class="st0" d="M65.9,60.4c-3.5,0-3.9,3.2-3.9,5.6c0,2.2,0.6,5.2,3.8,5.1C69.2,71,70,68.4,70,65C70,62.7,68.9,60.4,65.9,60.4z
		"/>
	<path class="st0" d="M46.6,55c-2,0.1-3.4,1.2-3.5,3.4s0,4.5,0,6.7c0,2.6-0.2,5.3,0.1,7.9c0.2,2.3,1.8,3.6,4.2,3.5
		c2.1-0.1,3.6-1.4,3.7-3.4c0.2-5.1,0.2-10.2,0-15.2C50.8,55.5,48.6,54.9,46.6,55z"/>
	<path class="st0" d="M8.6,56.2c-2,0.1-3.4,1.2-3.5,3.4s0,2,0,4.2c0,2.6-0.2,5.3,0.1,7.9C5.4,74,7,75.3,9.4,75.2
		c2.1-0.1,3.6-1.4,3.7-3.4c0.2-5.1,0.2-7.7,0-12.8C12.9,56.7,10.7,56.1,8.6,56.2z"/>
	<path class="st0" d="M27.6,51.9c-2,0.1-3.4,1.2-3.5,3.4s0,10.6,0,12.9c0,2.6-0.2,5.3,0.1,7.9c0.2,2.3,1.8,3.6,4.2,3.5
		c2.1-0.1,3.6-1.4,3.7-3.4c0.2-5.1,0.2-16.3,0-21.4C31.8,52.4,29.6,51.8,27.6,51.9z"/>
</g>
</svg>
