<?xml version="1.0" encoding="utf-8"?>
<!-- Generator: Adobe Illustrator 21.1.0, SVG Export Plug-In . SVG Version: 6.00 Build 0)  -->
<svg version="1.1" id="Layer_1" xmlns="http://www.w3.org/2000/svg" xmlns:xlink="http://www.w3.org/1999/xlink" x="0px" y="0px"
	 viewBox="0 0 600 600" style="enable-background:new 0 0 600 600;" xml:space="preserve">
<style type="text/css">
	.st0{fill:#305BA6;}
	.st1{opacity:0.9;}
	.st2{fill:#46B75B;}
	.st3{fill:#05897B;}
	.st4{fill:#D42026;}
	.st5{fill:#FFFFFF;}
</style>
<g>
	<g>
		<g>
			<g>
				<path class="st0" d="M467.1,29.8c0,94.4-74,170.9-165.4,170.9S136.3,124.2,136.3,29.8c0-6.3,0.4-12.6,1-18.8H84.4
					c-0.5,6.2-0.8,12.4-0.8,18.8c0,124.5,97.6,225.4,218.1,225.4c120.4,0,218.1-100.9,218.1-225.4c0-6.3-0.3-12.6-0.8-18.8h-52.9
					C466.7,17.2,467.1,23.4,467.1,29.8z"/>
				<path class="st0" d="M301.7,169.3c29.1,0,52.7-38.1,52.7-68.2c0-30.1-23.6-59.9-52.7-59.9c-29.1,0-52.7,29.9-52.7,59.9
					C249,131.2,272.6,169.3,301.7,169.3z"/>
			</g>
		</g>
		<g class="st1">
			<path class="st2" d="M434.8,533.2c-85.6-33-129-131.5-97-219.9S465,180,550.6,213.1c5.8,2.2,11.3,4.8,16.7,7.6l18.5-51.2
				c-5.4-2.6-11-5.1-16.7-7.4c-112.8-43.6-238.5,15.6-280.6,132.2c-42.2,116.6,15.1,246.4,127.9,290c5.7,2.2,11.5,4.1,17.3,5.8
				l18.5-51.2C446.3,537.3,440.5,535.4,434.8,533.2z"/>
		</g>
		<g class="st1">
			<path class="st3" d="M166.4,532.9c85.6-33,129-131.5,97-219.9S136.2,179.7,50.6,212.7c-5.8,2.2-11.3,4.8-16.7,7.6l-18.5-51.2
				c5.4-2.6,11-5.1,16.7-7.4c112.8-43.6,238.5,15.6,280.6,132.2c42.2,116.6-15.1,246.4-127.9,290c-5.7,2.2-11.5,4.1-17.3,5.8
				L149,538.5C154.8,537,160.6,535.1,166.4,532.9z"/>
			<path class="st3" d="M233.2,323.3c10.2,28.2-14.3,65-41.5,75.6c-27.3,10.5-60.3-1-70.5-29.2s6.3-62.3,33.6-72.8
				C182,286.3,223,295.1,233.2,323.3z"/>
		</g>
	</g>
	<g class="st1">
		<ellipse class="st4" cx="460.6" cy="361.2" rx="110.9" ry="114.6"/>
		<polygon class="st5" points="535.8,342.4 478.7,342.4 478.7,283.4 442.5,283.4 442.5,342.4 385.4,342.4 385.4,379.9 442.5,379.9 
			442.5,438.9 478.7,438.9 478.7,379.9 535.8,379.9 		"/>
	</g>
</g>
</svg>
